<?xml version="1.0" encoding="utf-8"?>
<!-- Generator: Adobe Illustrator 16.0.0, SVG Export Plug-In . SVG Version: 6.00 Build 0)  -->
<!DOCTYPE svg PUBLIC "-//W3C//DTD SVG 1.1//EN" "http://www.w3.org/Graphics/SVG/1.1/DTD/svg11.dtd">
<svg version="1.1" id="Capa_1" xmlns="http://www.w3.org/2000/svg" xmlns:xlink="http://www.w3.org/1999/xlink" x="0px" y="0px"
	 width="56.5px" height="56.042px" viewBox="0 0 56.5 56.042" enable-background="new 0 0 56.5 56.042" xml:space="preserve">
<g>
	<g>
		<g>
			<g>
				<path fill-rule="evenodd" clip-rule="evenodd" fill="#399F81" d="M32.819,30.793c-0.583,0.426-1.056,0.759-1.418,0.998
					c-0.363,0.238-0.846,0.482-1.449,0.731s-1.166,0.373-1.687,0.373H28.25h-0.016c-0.521,0-1.083-0.124-1.687-0.373
					s-1.086-0.493-1.449-0.731c-0.363-0.239-0.835-0.572-1.418-0.998c-0.162-0.118-0.342-0.248-0.537-0.387l-7.786,7.738
					c0.455,0.399,0.99,0.603,1.608,0.603h22.568c0.618,0,1.153-0.203,1.608-0.603l-7.784-7.736
					C33.171,30.542,32.99,30.67,32.819,30.793z M16.062,25.537c-0.583-0.386-1.099-0.828-1.549-1.325v11.77l6.861-6.818
					C20.001,28.21,18.232,27.003,16.062,25.537z M35.129,29.166l6.858,6.816V24.211c-0.44,0.487-0.951,0.929-1.533,1.325
					C38.365,26.941,36.591,28.151,35.129,29.166z M17.15,23.906c0.348,0.244,1.395,0.968,3.143,2.172
					c0.944,0.649,1.764,1.216,2.47,1.705c0.601,0.416,1.119,0.776,1.547,1.075c0.049,0.034,0.126,0.09,0.229,0.162
					c0.111,0.079,0.25,0.18,0.423,0.303c0.332,0.239,0.608,0.432,0.828,0.579c0.22,0.148,0.485,0.313,0.797,0.495
					c0.312,0.184,0.605,0.32,0.882,0.412c0.276,0.091,0.531,0.137,0.766,0.137h0.016h0.015c0.235,0,0.491-0.046,0.767-0.137
					c0.276-0.092,0.57-0.229,0.881-0.412c0.312-0.183,0.578-0.348,0.797-0.495c0.22-0.147,0.496-0.34,0.828-0.579
					c0.172-0.123,0.312-0.224,0.423-0.302c0.102-0.073,0.18-0.128,0.229-0.163c0.333-0.23,0.853-0.589,1.551-1.071
					c1.271-0.878,3.143-2.17,5.624-3.881c0.746-0.518,1.369-1.143,1.87-1.874c0.5-0.731,0.751-1.498,0.751-2.301
					c0-0.67-0.243-1.244-0.729-1.722c-0.486-0.478-1.061-0.716-1.725-0.716H16.966c-0.787,0-1.393,0.264-1.816,0.792
					c-0.424,0.528-0.636,1.188-0.636,1.981c0,0.64,0.281,1.333,0.843,2.079C15.918,22.893,16.516,23.479,17.15,23.906z"/>
			</g>
		</g>
	</g>
	<path fill-rule="evenodd" clip-rule="evenodd" fill="none" stroke="#399F81" stroke-miterlimit="10" d="M5.927,2.273h44.646
		c1.896,0,3.434,1.537,3.434,3.433v44.631c0,1.896-1.537,3.433-3.434,3.433H5.927c-1.896,0-3.434-1.537-3.434-3.433V5.706
		C2.493,3.81,4.03,2.273,5.927,2.273z"/>
</g>
</svg>
