<?xml version="1.0" encoding="utf-8"?>
<!-- Generator: Adobe Illustrator 16.0.0, SVG Export Plug-In . SVG Version: 6.00 Build 0)  -->
<!DOCTYPE svg PUBLIC "-//W3C//DTD SVG 1.1//EN" "http://www.w3.org/Graphics/SVG/1.1/DTD/svg11.dtd">
<svg version="1.1" id="Capa_1" xmlns="http://www.w3.org/2000/svg" xmlns:xlink="http://www.w3.org/1999/xlink" x="0px" y="0px"
	 width="56.5px" height="56.042px" viewBox="0 0 56.5 56.042" enable-background="new 0 0 56.5 56.042" xml:space="preserve">
<g>
	<path fill-rule="evenodd" clip-rule="evenodd" fill="#399F81" d="M6.42,2.273h44.646c1.896,0,3.434,1.537,3.434,3.433v44.63
		c0,1.896-1.537,3.434-3.434,3.434H6.42c-1.896,0-3.434-1.537-3.434-3.434V5.706C2.986,3.81,4.523,2.273,6.42,2.273z"/>
	<path fill="#FFFFFF" d="M28.13,41.328c0.142,0.161,0.277,0.264,0.409,0.335l0.006,0.004l0.265,0.084l0.264-0.084l0.008-0.004
		c0.131-0.071,0.267-0.174,0.408-0.335c0,0,7.831-8.689,8.617-16.218c0.049-0.389,0.08-0.782,0.08-1.183
		c0-5.322-4.229-9.637-9.445-9.637c-5.216,0-9.445,4.314-9.445,9.637c0,0.407,0.032,0.805,0.081,1.198
		C20.186,32.652,28.13,41.328,28.13,41.328z M28.743,17.729c3.35,0,6.075,2.781,6.075,6.198s-2.726,6.198-6.075,6.198
		c-3.349,0-6.075-2.781-6.075-6.198S25.394,17.729,28.743,17.729z"/>
</g>
</svg>
