<?xml version="1.0" encoding="utf-8"?>
<!-- Generator: Adobe Illustrator 16.0.0, SVG Export Plug-In . SVG Version: 6.00 Build 0)  -->
<!DOCTYPE svg PUBLIC "-//W3C//DTD SVG 1.1//EN" "http://www.w3.org/Graphics/SVG/1.1/DTD/svg11.dtd">
<svg version="1.1" id="Capa_1" xmlns="http://www.w3.org/2000/svg" xmlns:xlink="http://www.w3.org/1999/xlink" x="0px" y="0px"
	 width="140.544px" height="150px" viewBox="0 0 140.544 150" enable-background="new 0 0 140.544 150" xml:space="preserve">
<g>
	<path fill="#00A182" d="M56.844,38.806v7.327H38.268c-8.258,0-14.977,6.801-14.977,15.16v10.644h-7.327V61.293
		c0-12.399,10.005-22.487,22.304-22.487H56.844z"/>
	<path fill="#00A182" d="M127.805,49.368v11.865c0,12.398-10.007,22.487-22.306,22.487H87.536v-7.327h17.963
		c8.26,0,14.979-6.803,14.979-15.16V49.368H127.805z"/>
	<g>
		<defs>
			<path id="SVGID_1_" d="M48.878,86.217v10.241c0,13.53,10.045,23.732,23.364,23.732c12.881,0,23.362-10.646,23.362-23.732V76.399
				H85.79v20.059c0,7.674-6.077,13.915-13.548,13.915c-7.726,0-13.549-5.982-13.549-13.915V76.399H25.68v9.817H48.878z"/>
		</defs>
		<clipPath id="SVGID_2_">
			<use xlink:href="#SVGID_1_"  overflow="visible"/>
		</clipPath>
		<g clip-path="url(#SVGID_2_)">
			<g>
				<polygon fill="#9DBC85" points="146.271,90.714 111.146,68.223 146.271,45.729 				"/>
				<polygon fill="#CCC985" points="111.146,68.223 146.271,90.714 111.146,113.206 				"/>
				<polygon fill="#C6C683" points="146.271,135.697 111.146,113.206 146.271,90.714 				"/>
				<polygon fill="#E9CB7E" points="111.146,113.206 146.271,135.697 111.146,158.187 				"/>
				<polygon fill="#D9A569" points="146.271,180.679 111.146,158.187 146.271,135.697 				"/>
				<polygon fill="#6BAF7E" points="76.02,45.729 111.146,68.223 76.02,90.714 				"/>
				<polygon fill="#62AB82" points="111.146,113.206 76.02,90.714 111.146,68.223 				"/>
				<polygon fill="#A6B884" points="76.02,90.714 111.146,113.206 76.02,135.697 				"/>
				<polygon fill="#BBB57E" points="111.146,158.187 76.02,135.697 111.146,113.206 				"/>
				<polygon fill="#DBAA6E" points="76.02,135.697 111.146,158.187 76.02,180.679 				"/>
				<polygon fill="#128A81" points="76.02,90.714 40.896,68.223 76.02,45.729 				"/>
				<polygon fill="#419A84" points="40.896,68.223 76.02,90.714 40.896,113.206 				"/>
				<polygon fill="#70A585" points="76.02,135.697 40.896,113.206 76.02,90.714 				"/>
				<polygon fill="#A2B383" points="40.896,113.206 76.02,135.697 40.896,158.187 				"/>
				<polygon fill="#C4C685" points="76.02,180.679 40.896,158.187 76.02,135.697 				"/>
				<polygon fill="#086D76" points="5.771,45.729 40.896,68.223 5.771,90.714 				"/>
				<polygon fill="#0D797A" points="40.896,113.206 5.771,90.714 40.896,68.223 				"/>
				<polygon fill="#689F86" points="5.771,90.714 40.896,113.206 5.771,135.697 				"/>
				<polygon fill="#89AD82" points="40.896,158.187 5.771,135.697 40.896,113.206 				"/>
				<polygon fill="#B9C07F" points="5.771,135.697 40.896,158.187 5.771,180.679 				"/>
			</g>
			<g opacity="0.48">
				<polygon fill="#DDA054" points="138.192,65.4 176.83,87.894 138.192,110.383 				"/>
				<polygon fill="#E3BF6E" points="176.83,132.875 138.192,110.383 176.83,87.894 				"/>
				<polygon fill="#F4CE70" points="138.192,110.383 176.83,132.875 138.192,155.366 				"/>
				<polygon fill="#F5C673" points="176.83,177.855 138.192,155.366 176.83,132.875 				"/>
				<polygon fill="#9DBC85" points="138.192,110.383 99.555,87.894 138.192,65.4 				"/>
				<polygon fill="#CCC985" points="99.555,87.894 138.192,110.383 99.555,132.875 				"/>
				<polygon fill="#C6C683" points="138.192,155.366 99.555,132.875 138.192,110.383 				"/>
				<polygon fill="#E9CB7E" points="99.555,132.875 138.192,155.366 99.555,177.855 				"/>
				<polygon fill="#6BAF7E" points="60.919,65.4 99.555,87.894 60.919,110.383 				"/>
				<polygon fill="#62AB82" points="99.555,132.875 60.919,110.383 99.555,87.894 				"/>
				<polygon fill="#A6B884" points="60.919,110.383 99.555,132.875 60.919,155.366 				"/>
				<polygon fill="#BBB57E" points="99.555,177.855 60.919,155.366 99.555,132.875 				"/>
				<polygon fill="#128A81" points="60.919,110.383 22.281,87.894 60.919,65.4 				"/>
				<polygon fill="#419A84" points="22.281,87.894 60.919,110.383 22.281,132.875 				"/>
				<polygon fill="#70A585" points="60.919,155.366 22.281,132.875 60.919,110.383 				"/>
				<polygon fill="#A2B383" points="22.281,132.875 60.919,155.366 22.281,177.855 				"/>
				<polygon fill="#086D76" points="-16.357,65.4 22.281,87.894 -16.357,110.383 				"/>
				<polygon fill="#0D797A" points="22.281,132.875 -16.357,110.383 22.281,87.894 				"/>
				<polygon fill="#689F86" points="-16.357,110.383 22.281,132.875 -16.357,155.366 				"/>
				<polygon fill="#89AD82" points="22.281,177.855 -16.357,155.366 22.281,132.875 				"/>
			</g>
			<g opacity="0.26">
				<polygon fill="#9DBC85" points="149.257,57.52 110.619,35.028 149.257,12.537 				"/>
				<polygon fill="#CCC985" points="110.619,35.028 149.257,57.52 110.619,80.01 				"/>
				<polygon fill="#C6C683" points="149.257,102.502 110.619,80.01 149.257,57.52 				"/>
				<polygon fill="#E9CB7E" points="110.619,80.01 149.257,102.502 110.619,124.993 				"/>
				<polygon fill="#D9A569" points="149.257,147.483 110.619,124.993 149.257,102.502 				"/>
				<polygon fill="#A1583B" points="110.619,124.993 149.257,147.483 110.619,169.974 				"/>
				<polygon fill="#9E4832" points="149.257,192.466 110.619,169.974 149.257,147.483 				"/>
				<polygon fill="#6BAF7E" points="71.981,12.537 110.619,35.028 71.981,57.52 				"/>
				<polygon fill="#62AB82" points="110.619,80.01 71.981,57.52 110.619,35.028 				"/>
				<polygon fill="#A6B884" points="71.981,57.52 110.619,80.01 71.981,102.502 				"/>
				<polygon fill="#BBB57E" points="110.619,124.993 71.981,102.502 110.619,80.01 				"/>
				<polygon fill="#DBAA6E" points="71.981,102.502 110.619,124.993 71.981,147.483 				"/>
				<polygon fill="#DF995E" points="110.619,169.974 71.981,147.483 110.619,124.993 				"/>
				<polygon fill="#D88651" points="71.981,147.483 110.619,169.974 71.981,192.466 				"/>
				<polygon fill="#128A81" points="71.981,57.52 33.345,35.028 71.981,12.537 				"/>
				<polygon fill="#419A84" points="33.345,35.028 71.981,57.52 33.345,80.01 				"/>
				<polygon fill="#70A585" points="71.981,102.502 33.345,80.01 71.981,57.52 				"/>
				<polygon fill="#A2B383" points="33.345,80.01 71.981,102.502 33.345,124.993 				"/>
				<polygon fill="#C4C685" points="71.981,147.483 33.345,124.993 71.981,102.502 				"/>
				<polygon fill="#E1B972" points="33.345,124.993 71.981,147.483 33.345,169.974 				"/>
				<polygon fill="#EEC075" points="71.981,192.466 33.345,169.974 71.981,147.483 				"/>
				<polygon fill="#086D76" points="-5.294,12.537 33.345,35.028 -5.294,57.52 				"/>
				<polygon fill="#0D797A" points="33.345,80.01 -5.294,57.52 33.345,35.028 				"/>
				<polygon fill="#689F86" points="-5.294,57.52 33.345,80.01 -5.294,102.502 				"/>
				<polygon fill="#89AD82" points="33.345,124.993 -5.294,102.502 33.345,80.01 				"/>
				<polygon fill="#B9C07F" points="-5.294,102.502 33.345,124.993 -5.294,147.483 				"/>
				<polygon fill="#D1B466" points="33.345,169.974 -5.294,147.483 33.345,124.993 				"/>
				<polygon fill="#E6B266" points="-5.294,147.483 33.345,169.974 -5.294,192.466 				"/>
			</g>
		</g>
	</g>
	<path fill="#00A182" d="M13.93,81.161c0,2.752,2.237,4.99,4.99,4.99c2.75,0,4.988-2.238,4.988-4.99c0-2.751-2.238-4.99-4.988-4.99
		C16.167,76.171,13.93,78.41,13.93,81.161z"/>
	<g>
		<defs>
			<path id="SVGID_3_" d="M47.821,25.464v20.669h9.813V25.464c0-7.674,6.078-13.915,13.548-13.915c7.726,0,13.55,5.981,13.55,13.915
				v20.058h31.793v-9.814H94.548V25.464c0-13.528-10.044-23.73-23.365-23.73C58.301,1.733,47.821,12.379,47.821,25.464z"/>
		</defs>
		<clipPath id="SVGID_4_">
			<use xlink:href="#SVGID_3_"  overflow="visible"/>
		</clipPath>
		<g clip-path="url(#SVGID_4_)">
			<polygon fill="#DDA054" points="6.516,71.997 -21.315,54.173 6.516,36.351 			"/>
			<polygon fill="#E3BF6E" points="-21.315,18.529 6.516,36.351 -21.315,54.173 			"/>
			<polygon fill="#F4CE70" points="6.516,36.351 -21.315,18.529 6.516,0.709 			"/>
			<polygon fill="#F5C673" points="-21.315,-17.11 6.516,0.709 -21.315,18.529 			"/>
			<polygon fill="#F6B663" points="6.516,0.709 -21.315,-17.11 6.516,-34.933 			"/>
			<polygon fill="#9DBC85" points="6.516,36.351 34.347,54.173 6.516,71.997 			"/>
			<polygon fill="#CCC985" points="34.347,54.173 6.516,36.351 34.347,18.529 			"/>
			<polygon fill="#C6C683" points="6.516,0.709 34.347,18.529 6.516,36.351 			"/>
			<polygon fill="#E9CB7E" points="34.347,18.529 6.516,0.709 34.347,-17.11 			"/>
			<polygon fill="#D9A569" points="6.516,-34.933 34.347,-17.11 6.516,0.709 			"/>
			<polygon fill="#6BAF7E" points="62.18,71.997 34.347,54.173 62.18,36.351 			"/>
			<polygon fill="#62AB82" points="34.347,18.529 62.18,36.351 34.347,54.173 			"/>
			<polygon fill="#A6B884" points="62.18,36.351 34.347,18.529 62.18,0.709 			"/>
			<polygon fill="#BBB57E" points="34.347,-17.11 62.18,0.709 34.347,18.529 			"/>
			<polygon fill="#DBAA6E" points="62.18,0.709 34.347,-17.11 62.18,-34.933 			"/>
			<polygon fill="#128A81" points="62.18,36.351 90.01,54.173 62.18,71.997 			"/>
			<polygon fill="#419A84" points="90.01,54.173 62.18,36.351 90.01,18.529 			"/>
			<polygon fill="#70A585" points="62.18,0.709 90.01,18.529 62.18,36.351 			"/>
			<polygon fill="#A2B383" points="90.01,18.529 62.18,0.709 90.01,-17.11 			"/>
			<polygon fill="#C4C685" points="62.18,-34.933 90.01,-17.11 62.18,0.709 			"/>
			<polygon fill="#086D76" points="117.842,71.997 90.01,54.173 117.842,36.351 			"/>
			<polygon fill="#0D797A" points="90.01,18.529 117.842,36.351 90.01,54.173 			"/>
			<polygon fill="#689F86" points="117.842,36.351 90.01,18.529 117.842,0.709 			"/>
			<polygon fill="#89AD82" points="90.01,-17.11 117.842,0.709 90.01,18.529 			"/>
			<polygon fill="#B9C07F" points="117.842,0.709 90.01,-17.11 117.842,-34.933 			"/>
		</g>
		<g opacity="0.48" clip-path="url(#SVGID_4_)">
			<polygon fill="#DDA054" points="12.918,56.409 -17.698,38.586 12.918,20.765 			"/>
			<polygon fill="#E3BF6E" points="-17.698,2.946 12.918,20.765 -17.698,38.586 			"/>
			<polygon fill="#F4CE70" points="12.918,20.765 -17.698,2.946 12.918,-14.875 			"/>
			<polygon fill="#F5C673" points="-17.698,-32.696 12.918,-14.875 -17.698,2.946 			"/>
			<polygon fill="#9DBC85" points="12.918,20.765 43.533,38.586 12.918,56.409 			"/>
			<polygon fill="#CCC985" points="43.533,38.586 12.918,20.765 43.533,2.946 			"/>
			<polygon fill="#C6C683" points="12.918,-14.875 43.533,2.946 12.918,20.765 			"/>
			<polygon fill="#E9CB7E" points="43.533,2.946 12.918,-14.875 43.533,-32.696 			"/>
			<polygon fill="#6BAF7E" points="74.146,56.409 43.533,38.586 74.146,20.765 			"/>
			<polygon fill="#62AB82" points="43.533,2.946 74.146,20.765 43.533,38.586 			"/>
			<polygon fill="#A6B884" points="74.146,20.765 43.533,2.946 74.146,-14.875 			"/>
			<polygon fill="#BBB57E" points="43.533,-32.696 74.146,-14.875 43.533,2.946 			"/>
			<polygon fill="#128A81" points="74.146,20.765 104.76,38.586 74.146,56.409 			"/>
			<polygon fill="#419A84" points="104.76,38.586 74.146,20.765 104.76,2.946 			"/>
			<polygon fill="#70A585" points="74.146,-14.875 104.76,2.946 74.146,20.765 			"/>
			<polygon fill="#A2B383" points="104.76,2.946 74.146,-14.875 104.76,-32.696 			"/>
			<polygon fill="#086D76" points="135.375,56.409 104.76,38.586 135.375,20.765 			"/>
			<polygon fill="#0D797A" points="104.76,2.946 135.375,20.765 104.76,38.586 			"/>
			<polygon fill="#689F86" points="135.375,20.765 104.76,2.946 135.375,-14.875 			"/>
			<polygon fill="#89AD82" points="104.76,-32.696 135.375,-14.875 104.76,2.946 			"/>
		</g>
		<g opacity="0.26" clip-path="url(#SVGID_4_)">
			<polygon fill="#DDA054" points="4.149,98.295 -26.466,80.473 4.149,62.652 			"/>
			<polygon fill="#E3BF6E" points="-26.466,44.833 4.149,62.652 -26.466,80.473 			"/>
			<polygon fill="#F4CE70" points="4.149,62.652 -26.466,44.833 4.149,27.011 			"/>
			<polygon fill="#F5C673" points="-26.466,9.189 4.149,27.011 -26.466,44.833 			"/>
			<polygon fill="#F6B663" points="4.149,27.011 -26.466,9.189 4.149,-8.631 			"/>
			<polygon fill="#BB7845" points="-26.466,-26.449 4.149,-8.631 -26.466,9.189 			"/>
			<polygon fill="#9DBC85" points="4.149,62.652 34.765,80.473 4.149,98.295 			"/>
			<polygon fill="#CCC985" points="34.765,80.473 4.149,62.652 34.765,44.833 			"/>
			<polygon fill="#C6C683" points="4.149,27.011 34.765,44.833 4.149,62.652 			"/>
			<polygon fill="#E9CB7E" points="34.765,44.833 4.149,27.011 34.765,9.189 			"/>
			<polygon fill="#D9A569" points="4.149,-8.631 34.765,9.189 4.149,27.011 			"/>
			<polygon fill="#A1583B" points="34.765,9.189 4.149,-8.631 34.765,-26.449 			"/>
			<polygon fill="#6BAF7E" points="65.38,98.295 34.765,80.473 65.38,62.652 			"/>
			<polygon fill="#62AB82" points="34.765,44.833 65.38,62.652 34.765,80.473 			"/>
			<polygon fill="#A6B884" points="65.38,62.652 34.765,44.833 65.38,27.011 			"/>
			<polygon fill="#BBB57E" points="34.765,9.189 65.38,27.011 34.765,44.833 			"/>
			<polygon fill="#DBAA6E" points="65.38,27.011 34.765,9.189 65.38,-8.631 			"/>
			<polygon fill="#DF995E" points="34.765,-26.449 65.38,-8.631 34.765,9.189 			"/>
			<polygon fill="#128A81" points="65.38,62.652 95.993,80.473 65.38,98.295 			"/>
			<polygon fill="#419A84" points="95.993,80.473 65.38,62.652 95.993,44.833 			"/>
			<polygon fill="#70A585" points="65.38,27.011 95.993,44.833 65.38,62.652 			"/>
			<polygon fill="#A2B383" points="95.993,44.833 65.38,27.011 95.993,9.189 			"/>
			<polygon fill="#C4C685" points="65.38,-8.631 95.993,9.189 65.38,27.011 			"/>
			<polygon fill="#E1B972" points="95.993,9.189 65.38,-8.631 95.993,-26.449 			"/>
			<polygon fill="#086D76" points="126.609,98.295 95.993,80.473 126.609,62.652 			"/>
			<polygon fill="#0D797A" points="95.993,44.833 126.609,62.652 95.993,80.473 			"/>
			<polygon fill="#689F86" points="126.609,62.652 95.993,44.833 126.609,27.011 			"/>
			<polygon fill="#89AD82" points="95.993,9.189 126.609,27.011 95.993,44.833 			"/>
			<polygon fill="#B9C07F" points="126.609,27.011 95.993,9.189 126.609,-8.631 			"/>
			<polygon fill="#D1B466" points="95.993,-26.449 126.609,-8.631 95.993,9.189 			"/>
		</g>
	</g>
	<path fill="#00A182" d="M118.688,40.812c0,2.752,2.239,4.99,4.99,4.99c2.752,0,4.99-2.238,4.99-4.99
		c0-2.751-2.238-4.989-4.99-4.989C120.927,35.822,118.688,38.061,118.688,40.812z"/>
	<g>
		<g>
			<path fill="#00A182" d="M8.137,136.8c1.458,0,2.872,0.609,3.524,1.763v-4.33c0-1.001,1.589-1.001,1.589,0v13.143
				c0,0.479-0.305,0.762-0.806,0.762c-0.5,0-0.739-0.283-0.739-0.762v-1.022c-0.74,1.349-2.263,1.914-3.568,1.914
				c-0.675,0-1.415-0.13-2.089-0.413l0.021,0.021c-2.372-0.979-3.568-3.133-3.503-5.657C2.653,139.128,4.873,136.8,8.137,136.8z
				 M11.661,143.371v-1.719c0-1.915-1.479-3.264-3.459-3.351c-1.545,0-3.09,0.826-3.722,2.328c-0.174,0.457-0.305,1.044-0.326,1.609
				c-0.021,1.415,0.436,2.721,1.61,3.699c0.631,0.501,1.414,0.762,2.241,0.827C9.986,146.766,11.661,145.504,11.661,143.371z"/>
			<path fill="#00A182" d="M17.275,146.243c-0.979-1.153-1.393-2.546-1.327-4.178c0.218-2.415,1.632-4.438,4.025-5.113
				c0.522-0.152,1.11-0.195,1.654-0.195c0.521,0,1.044,0.043,1.609,0.195c2.372,0.675,3.852,2.677,4.048,5.113
				c0.087,1.632-0.349,3.024-1.306,4.178c-1.066,1.284-2.633,1.959-4.352,1.959C19.887,148.202,18.342,147.527,17.275,146.243z
				 M21.605,138.236c-0.413,0-0.826,0.065-1.153,0.152c-1.827,0.479-2.894,2.176-2.894,4.134c0,0.979,0.305,2.002,0.957,2.764
				c0.762,0.914,1.915,1.436,3.112,1.436c1.175,0,2.371-0.565,3.133-1.436c0.609-0.74,0.957-1.784,0.957-2.72
				c0-1.98-1.065-3.699-2.915-4.178C22.454,138.302,22.02,138.236,21.605,138.236z"/>
			<path fill="#00A182" d="M34.771,138.084c-2.372,0-3.981,1.937-3.981,4.417c0,0.979,0.282,2.089,0.936,2.872
				c0.762,0.936,1.958,1.437,3.133,1.437c1.153,0,2.415-0.393,3.177-1.437c0.544-0.74,1.85,0.108,1.11,0.957
				c-1.066,1.306-2.698,1.937-4.309,1.937c-1.632,0-3.285-0.674-4.374-1.937c-0.913-1.131-1.37-2.676-1.283-4.265
				c0.174-3.22,2.459-5.418,5.766-5.418c1.567,0,2.829,0.522,4.004,1.85c0.631,0.718-0.544,1.632-1.153,0.914
				C36.969,138.454,35.858,138.084,34.771,138.084z"/>
			<path fill="#00A182" d="M46.369,136.931c0.979,0,0.979,1.371,0,1.371h-2.372v5.875c0,1.24,0.196,2.545,1.676,2.545
				c0.326,0,0.805-0.108,1.022-0.239c0.914-0.521,1.632,0.762,0.652,1.306c-0.544,0.305-1.088,0.37-1.675,0.37
				c-2.611,0-3.242-1.915-3.242-3.981v-5.875h-1.437c-1.022,0-0.957-1.371,0-1.371h1.437v-2.524c0-1.044,1.566-1.022,1.566,0v2.524
				H46.369z"/>
			<path fill="#00A182" d="M50.155,146.243c-0.979-1.153-1.393-2.546-1.327-4.178c0.218-2.415,1.632-4.438,4.025-5.113
				c0.522-0.152,1.109-0.195,1.654-0.195c0.521,0,1.044,0.043,1.609,0.195c2.372,0.675,3.852,2.677,4.048,5.113
				c0.087,1.632-0.349,3.024-1.306,4.178c-1.066,1.284-2.633,1.959-4.352,1.959C52.767,148.202,51.222,147.527,50.155,146.243z
				 M54.485,138.236c-0.413,0-0.826,0.065-1.153,0.152c-1.827,0.479-2.894,2.176-2.894,4.134c0,0.979,0.305,2.002,0.957,2.764
				c0.762,0.914,1.915,1.436,3.112,1.436c1.175,0,2.371-0.565,3.133-1.436c0.609-0.74,0.957-1.784,0.957-2.72
				c0-1.98-1.065-3.699-2.915-4.178C55.334,138.302,54.899,138.236,54.485,138.236z"/>
			<path fill="#00A182" d="M64.234,138.736c0.696-1.458,2.002-1.85,3.242-1.85c0.5,0,0.827,0.262,0.827,0.762
				c0,0.479-0.327,0.74-0.827,0.74c-2.241,0-3.198,1.784-3.198,3.981v4.918c0,0.457-0.37,0.762-0.784,0.762
				c-0.479,0-0.805-0.305-0.805-0.762v-9.64c0-0.957,1.545-1.044,1.545,0V138.736z"/>
			<path fill="#00A182" d="M74.68,137.822c-0.326-0.913,1.11-1.436,1.502-0.587c1.501,3.003,2.741,5.461,4.265,8.485l4.309-8.529
				c0.326-0.805,1.806-0.348,1.414,0.544l-5.026,9.987c-0.283,0.566-1.022,0.74-1.437,0.022L74.68,137.822z"/>
			<path fill="#00A182" d="M89.541,135.299c0,0.979-1.632,1.001-1.632,0v-0.979c0-1.001,1.632-1.001,1.632,0V135.299z
				 M87.932,137.648c0-0.936,1.588-0.957,1.588-0.021v9.813c0,0.957-1.588,0.936-1.588,0V137.648z"/>
			<path fill="#00A182" d="M93.98,138.736c0.696-1.458,2.002-1.85,3.242-1.85c0.5,0,0.827,0.262,0.827,0.762
				c0,0.479-0.327,0.74-0.827,0.74c-2.241,0-3.198,1.784-3.198,3.981v4.918c0,0.457-0.37,0.762-0.784,0.762
				c-0.479,0-0.805-0.305-0.805-0.762v-9.64c0-0.957,1.545-1.044,1.545,0V138.736z"/>
			<path fill="#00A182" d="M105.514,136.931c0.979,0,0.979,1.371,0,1.371h-2.372v5.875c0,1.24,0.196,2.545,1.676,2.545
				c0.326,0,0.805-0.108,1.022-0.239c0.914-0.521,1.632,0.762,0.652,1.306c-0.544,0.305-1.088,0.37-1.675,0.37
				c-2.611,0-3.242-1.915-3.242-3.981v-5.875h-1.437c-1.022,0-0.957-1.371,0-1.371h1.437v-2.524c0-1.044,1.566-1.022,1.566,0v2.524
				H105.514z"/>
			<path fill="#00A182" d="M110.192,143.35c0,2.002,1.61,3.395,3.372,3.395c2.111,0,4.091-1.741,4.091-4.112v-5.049
				c0-0.479,0.283-0.762,0.783-0.762c0.501,0,0.827,0.283,0.827,0.762v9.748c0,1.001-1.566,1.023-1.566-0.021v-1.371
				c-0.783,1.589-2.459,2.285-4.156,2.285c-2.523,0-4.939-1.741-4.939-4.874v-5.767c0-0.479,0.283-0.762,0.783-0.762
				c0.479,0,0.806,0.283,0.806,0.762V143.35z"/>
			<path fill="#00A182" d="M125.271,137.214c0.718-0.327,1.502-0.436,2.328-0.414c1.24,0.021,2.655,0.414,3.438,1.697v-0.827
				c0-0.456,0.282-0.783,0.783-0.783c0.479,0,0.805,0.327,0.805,0.783v9.661c0,0.479-0.326,0.783-0.805,0.783
				c-0.501,0-0.783-0.305-0.783-0.783v-1.044c-0.631,1.262-2.241,1.979-3.525,1.979c-1.044,0-2.22-0.282-3.133-0.936
				c-1.654-1.131-2.503-2.98-2.438-5.113c0.044-2.197,1.262-4.221,3.351-5.026L125.271,137.214z M131.038,143.371v-1.719
				c0-2.154-1.502-3.264-3.46-3.351c-1.545-0.022-3.111,0.805-3.721,2.328c-0.196,0.457-0.305,1.044-0.326,1.609
				c-0.044,1.415,0.413,2.721,1.588,3.699c0.653,0.501,1.437,0.762,2.241,0.827C129.362,146.766,130.929,145.547,131.038,143.371z"
				/>
			<path fill="#00A182" d="M137.436,147.354c0,0.413-0.348,0.739-0.783,0.739c-0.479,0-0.805-0.326-0.805-0.739v-13.056
				c0-0.414,0.326-0.74,0.805-0.74c0.436,0,0.783,0.326,0.783,0.74V147.354z"/>
		</g>
	</g>
</g>
</svg>
