<?xml version="1.0" encoding="utf-8"?>
<!-- Generator: Adobe Illustrator 16.0.0, SVG Export Plug-In . SVG Version: 6.00 Build 0)  -->
<!DOCTYPE svg PUBLIC "-//W3C//DTD SVG 1.1//EN" "http://www.w3.org/Graphics/SVG/1.1/DTD/svg11.dtd">
<svg version="1.1" id="Capa_1" xmlns="http://www.w3.org/2000/svg" xmlns:xlink="http://www.w3.org/1999/xlink" x="0px" y="0px"
	 width="189.243px" height="75px" viewBox="0 0 189.243 75" enable-background="new 0 0 189.243 75" xml:space="preserve">
<g>
	<path fill="#00A182" d="M27.485,24.006v4.462H16.174c-5.03,0-9.123,4.143-9.123,9.234v6.482H2.588v-6.482
		c0-7.552,6.094-13.696,13.586-13.696H27.485z"/>
	<path fill="#00A182" d="M70.706,30.439v7.226c0,7.552-6.095,13.696-13.585,13.696H46.18v-4.463h10.941
		c5.03,0,9.121-4.143,9.121-9.233v-7.226H70.706z"/>
	<g>
		<defs>
			<path id="SVGID_1_" d="M22.635,52.882v6.238c0,8.239,6.118,14.453,14.23,14.453c7.846,0,14.229-6.483,14.229-14.453V46.903
				h-5.978V59.12c0,4.673-3.701,8.476-8.251,8.476c-4.705,0-8.253-3.645-8.253-8.476V46.903H8.506v5.979H22.635z"/>
		</defs>
		<clipPath id="SVGID_2_">
			<use xlink:href="#SVGID_1_"  overflow="visible"/>
		</clipPath>
		<g clip-path="url(#SVGID_2_)">
			<g>
				<polygon fill="#DA7F30" points="124.738,28.223 146.132,41.922 124.738,55.62 				"/>
				<polygon fill="#F2A13A" points="146.132,69.319 124.738,55.62 146.132,41.922 				"/>
				<polygon fill="#F5AC4A" points="124.738,55.62 146.132,69.319 124.738,83.019 				"/>
				<polygon fill="#F5A657" points="146.132,96.715 124.738,83.019 146.132,69.319 				"/>
				<polygon fill="#E5A33F" points="124.738,55.62 103.348,41.922 124.738,28.223 				"/>
				<polygon fill="#F1B241" points="103.348,41.922 124.738,55.62 103.348,69.319 				"/>
				<polygon fill="#F5C657" points="124.738,83.019 103.348,69.319 124.738,55.62 				"/>
				<polygon fill="#F5B45D" points="103.348,69.319 124.738,83.019 103.348,96.715 				"/>
				<polygon fill="#DDA054" points="81.952,28.223 103.348,41.922 81.952,55.62 				"/>
				<polygon fill="#E3BF6E" points="103.348,69.319 81.952,55.62 103.348,41.922 				"/>
				<polygon fill="#F4CE70" points="81.952,55.62 103.348,69.319 81.952,83.019 				"/>
				<polygon fill="#F5C673" points="103.348,96.715 81.952,83.019 103.348,69.319 				"/>
				<polygon fill="#9DBC85" points="81.952,55.62 60.561,41.922 81.952,28.223 				"/>
				<polygon fill="#CCC985" points="60.561,41.922 81.952,55.62 60.561,69.319 				"/>
				<polygon fill="#C6C683" points="81.952,83.019 60.561,69.319 81.952,55.62 				"/>
				<polygon fill="#E9CB7E" points="60.561,69.319 81.952,83.019 60.561,96.715 				"/>
				<polygon fill="#6BAF7E" points="39.166,28.223 60.561,41.922 39.166,55.62 				"/>
				<polygon fill="#62AB82" points="60.561,69.319 39.166,55.62 60.561,41.922 				"/>
				<polygon fill="#A6B884" points="39.166,55.62 60.561,69.319 39.166,83.019 				"/>
				<polygon fill="#BBB57E" points="60.561,96.715 39.166,83.019 60.561,69.319 				"/>
				<polygon fill="#128A81" points="39.166,55.62 17.772,41.922 39.166,28.223 				"/>
				<polygon fill="#419A84" points="17.772,41.922 39.166,55.62 17.772,69.319 				"/>
				<polygon fill="#70A585" points="39.166,83.019 17.772,69.319 39.166,55.62 				"/>
				<polygon fill="#A2B383" points="17.772,69.319 39.166,83.019 17.772,96.715 				"/>
				<polygon fill="#086D76" points="-3.62,28.223 17.772,41.922 -3.62,55.62 				"/>
				<polygon fill="#0D797A" points="17.772,69.319 -3.62,55.62 17.772,41.922 				"/>
				<polygon fill="#689F86" points="-3.62,55.62 17.772,69.319 -3.62,83.019 				"/>
				<polygon fill="#89AD82" points="17.772,96.715 -3.62,83.019 17.772,69.319 				"/>
			</g>
			<g opacity="0.48">
				<polygon fill="#DA7F30" points="124.098,40.203 147.63,53.903 124.098,67.601 				"/>
				<polygon fill="#F2A13A" points="147.63,81.299 124.098,67.601 147.63,53.903 				"/>
				<polygon fill="#F5AC4A" points="124.098,67.601 147.63,81.299 124.098,94.998 				"/>
				<polygon fill="#E5A33F" points="124.098,67.601 100.565,53.903 124.098,40.203 				"/>
				<polygon fill="#F1B241" points="100.565,53.903 124.098,67.601 100.565,81.299 				"/>
				<polygon fill="#F5C657" points="124.098,94.998 100.565,81.299 124.098,67.601 				"/>
				<polygon fill="#DDA054" points="77.033,40.203 100.565,53.903 77.033,67.601 				"/>
				<polygon fill="#E3BF6E" points="100.565,81.299 77.033,67.601 100.565,53.903 				"/>
				<polygon fill="#F4CE70" points="77.033,67.601 100.565,81.299 77.033,94.998 				"/>
				<polygon fill="#9DBC85" points="77.033,67.601 53.5,53.903 77.033,40.203 				"/>
				<polygon fill="#CCC985" points="53.5,53.903 77.033,67.601 53.5,81.299 				"/>
				<polygon fill="#C6C683" points="77.033,94.998 53.5,81.299 77.033,67.601 				"/>
				<polygon fill="#6BAF7E" points="29.969,40.203 53.5,53.903 29.969,67.601 				"/>
				<polygon fill="#62AB82" points="53.5,81.299 29.969,67.601 53.5,53.903 				"/>
				<polygon fill="#A6B884" points="29.969,67.601 53.5,81.299 29.969,94.998 				"/>
				<polygon fill="#128A81" points="29.969,67.601 6.437,53.903 29.969,40.203 				"/>
				<polygon fill="#419A84" points="6.437,53.903 29.969,67.601 6.437,81.299 				"/>
				<polygon fill="#70A585" points="29.969,94.998 6.437,81.299 29.969,67.601 				"/>
				<polygon fill="#086D76" points="-17.097,40.203 6.437,53.903 -17.097,67.601 				"/>
				<polygon fill="#0D797A" points="6.437,81.299 -17.097,67.601 6.437,53.903 				"/>
				<polygon fill="#689F86" points="-17.097,67.601 6.437,81.299 -17.097,94.998 				"/>
			</g>
			<g opacity="0.26">
				<polygon fill="#DA7F30" points="130.836,8.007 154.369,21.705 130.836,35.404 				"/>
				<polygon fill="#F2A13A" points="154.369,49.103 130.836,35.404 154.369,21.705 				"/>
				<polygon fill="#F5AC4A" points="130.836,35.404 154.369,49.103 130.836,62.802 				"/>
				<polygon fill="#F5A657" points="154.369,76.499 130.836,62.802 154.369,49.103 				"/>
				<polygon fill="#EE8B4A" points="130.836,62.802 154.369,76.499 130.836,90.196 				"/>
				<polygon fill="#E5A33F" points="130.836,35.404 107.305,21.705 130.836,8.007 				"/>
				<polygon fill="#F1B241" points="107.305,21.705 130.836,35.404 107.305,49.103 				"/>
				<polygon fill="#F5C657" points="130.836,62.802 107.305,49.103 130.836,35.404 				"/>
				<polygon fill="#F5B45D" points="107.305,49.103 130.836,62.802 107.305,76.499 				"/>
				<polygon fill="#F19B53" points="130.836,90.196 107.305,76.499 130.836,62.802 				"/>
				<polygon fill="#DDA054" points="83.771,8.007 107.305,21.705 83.771,35.404 				"/>
				<polygon fill="#E3BF6E" points="107.305,49.103 83.771,35.404 107.305,21.705 				"/>
				<polygon fill="#F4CE70" points="83.771,35.404 107.305,49.103 83.771,62.802 				"/>
				<polygon fill="#F5C673" points="107.305,76.499 83.771,62.802 107.305,49.103 				"/>
				<polygon fill="#F6B663" points="83.771,62.802 107.305,76.499 83.771,90.196 				"/>
				<polygon fill="#9DBC85" points="83.771,35.404 60.238,21.705 83.771,8.007 				"/>
				<polygon fill="#CCC985" points="60.238,21.705 83.771,35.404 60.238,49.103 				"/>
				<polygon fill="#C6C683" points="83.771,62.802 60.238,49.103 83.771,35.404 				"/>
				<polygon fill="#E9CB7E" points="60.238,49.103 83.771,62.802 60.238,76.499 				"/>
				<polygon fill="#D9A569" points="83.771,90.196 60.238,76.499 83.771,62.802 				"/>
				<polygon fill="#6BAF7E" points="36.706,8.007 60.238,21.705 36.706,35.404 				"/>
				<polygon fill="#62AB82" points="60.238,49.103 36.706,35.404 60.238,21.705 				"/>
				<polygon fill="#A6B884" points="36.706,35.404 60.238,49.103 36.706,62.802 				"/>
				<polygon fill="#BBB57E" points="60.238,76.499 36.706,62.802 60.238,49.103 				"/>
				<polygon fill="#DBAA6E" points="36.706,62.802 60.238,76.499 36.706,90.196 				"/>
				<polygon fill="#128A81" points="36.706,35.404 13.175,21.705 36.706,8.007 				"/>
				<polygon fill="#419A84" points="13.175,21.705 36.706,35.404 13.175,49.103 				"/>
				<polygon fill="#70A585" points="36.706,62.802 13.175,49.103 36.706,35.404 				"/>
				<polygon fill="#A2B383" points="13.175,49.103 36.706,62.802 13.175,76.499 				"/>
				<polygon fill="#C4C685" points="36.706,90.196 13.175,76.499 36.706,62.802 				"/>
				<polygon fill="#086D76" points="-10.359,8.007 13.175,21.705 -10.359,35.404 				"/>
				<polygon fill="#0D797A" points="13.175,49.103 -10.359,35.404 13.175,21.705 				"/>
				<polygon fill="#689F86" points="-10.359,35.404 13.175,49.103 -10.359,62.802 				"/>
				<polygon fill="#89AD82" points="13.175,76.499 -10.359,62.802 13.175,49.103 				"/>
				<polygon fill="#B9C07F" points="-10.359,62.802 13.175,76.499 -10.359,90.196 				"/>
			</g>
		</g>
	</g>
	<path fill="#00A182" d="M1.35,49.803c0,1.676,1.363,3.039,3.038,3.039c1.676,0,3.039-1.363,3.039-3.039s-1.363-3.039-3.039-3.039
		C2.713,46.764,1.35,48.127,1.35,49.803z"/>
	<g>
		<defs>
			<path id="SVGID_3_" d="M21.991,15.88v12.588h5.977V15.88c0-4.673,3.703-8.475,8.253-8.475c4.704,0,8.252,3.644,8.252,8.475
				v12.217h19.363v-5.978H50.45V15.88c0-8.239-6.117-14.453-14.229-14.453C28.374,1.427,21.991,7.911,21.991,15.88z"/>
		</defs>
		<clipPath id="SVGID_4_">
			<use xlink:href="#SVGID_3_"  overflow="visible"/>
		</clipPath>
		<g clip-path="url(#SVGID_4_)">
			<path fill="#00B3D3" stroke="#00B3D3" stroke-width="0.505" stroke-miterlimit="10" d="M83.946,77.97
				c0-1.048,0.438-2.064,1.268-2.534H82.1c-0.719,0-0.719-1.142,0-1.142h9.449c0.346,0,0.548,0.219,0.548,0.579
				c0,0.359-0.202,0.531-0.548,0.531h-0.734c0.969,0.531,1.377,1.627,1.377,2.565c0,0.485-0.095,1.018-0.297,1.502l0.016-0.016
				c-0.705,1.705-2.253,2.566-4.067,2.519C85.621,81.912,83.946,80.316,83.946,77.97z M88.671,75.436h-1.235
				c-1.377,0-2.347,1.063-2.41,2.487c0,1.11,0.596,2.222,1.674,2.675c0.33,0.125,0.752,0.22,1.159,0.235
				c1.017,0.016,1.954-0.313,2.658-1.158c0.36-0.453,0.548-1.017,0.596-1.611C91.112,76.641,90.203,75.436,88.671,75.436z"/>
			<path fill="#00B3D3" stroke="#00B3D3" stroke-width="0.505" stroke-miterlimit="10" d="M90.735,71.4
				c-0.828,0.704-1.829,1.001-3.002,0.954c-1.737-0.157-3.192-1.174-3.677-2.895c-0.11-0.375-0.141-0.798-0.141-1.189
				c0-0.375,0.03-0.75,0.141-1.157c0.484-1.705,1.924-2.769,3.677-2.91c1.173-0.062,2.174,0.251,3.002,0.939
				c0.923,0.766,1.409,1.893,1.409,3.128C92.145,69.522,91.658,70.633,90.735,71.4z M84.979,68.287c0,0.297,0.047,0.594,0.11,0.829
				c0.344,1.313,1.564,2.08,2.972,2.08c0.705,0,1.439-0.219,1.987-0.688c0.656-0.548,1.032-1.376,1.032-2.237
				c0-0.845-0.406-1.705-1.032-2.252c-0.532-0.438-1.282-0.688-1.956-0.688c-1.423,0-2.659,0.767-3.003,2.096
				C85.025,67.677,84.979,67.989,84.979,68.287z"/>
			<path fill="#00B3D3" stroke="#00B3D3" stroke-width="0.505" stroke-miterlimit="10" d="M84.869,58.822
				c0,1.705,1.393,2.862,3.176,2.862c0.705,0,1.503-0.202,2.065-0.673c0.673-0.547,1.032-1.407,1.032-2.252
				c0-0.829-0.281-1.736-1.032-2.284c-0.531-0.391,0.079-1.33,0.688-0.798c0.938,0.768,1.393,1.94,1.393,3.098
				c0,1.174-0.485,2.362-1.393,3.145c-0.814,0.657-1.924,0.985-3.065,0.923c-2.316-0.125-3.896-1.768-3.896-4.146
				c0-1.127,0.375-2.034,1.33-2.879c0.517-0.453,1.173,0.392,0.657,0.829C85.135,57.242,84.869,58.04,84.869,58.822z"/>
			<path fill="#00B3D3" stroke="#00B3D3" stroke-width="0.505" stroke-miterlimit="10" d="M84.041,50.484
				c0-0.704,0.984-0.704,0.984,0v1.705h4.225c0.892,0,1.83-0.141,1.83-1.204c0-0.235-0.078-0.579-0.172-0.736
				c-0.375-0.656,0.548-1.173,0.938-0.469c0.219,0.392,0.267,0.782,0.267,1.205c0,1.877-1.378,2.331-2.863,2.331h-4.225v1.031
				c0,0.735-0.984,0.688-0.984,0v-1.031h-1.814c-0.751,0-0.736-1.127,0-1.127h1.814V50.484z"/>
			<path fill="#00B3D3" stroke="#00B3D3" stroke-width="0.505" stroke-miterlimit="10" d="M90.735,47.763
				c-0.828,0.704-1.829,1.001-3.002,0.954c-1.737-0.157-3.192-1.174-3.677-2.895c-0.11-0.375-0.141-0.798-0.141-1.188
				c0-0.376,0.03-0.751,0.141-1.158c0.484-1.705,1.924-2.769,3.677-2.91c1.173-0.062,2.174,0.251,3.002,0.939
				c0.923,0.767,1.409,1.893,1.409,3.129C92.145,45.885,91.658,46.996,90.735,47.763z M84.979,44.649
				c0,0.297,0.047,0.595,0.11,0.829c0.344,1.313,1.564,2.081,2.972,2.081c0.705,0,1.439-0.22,1.987-0.689
				c0.656-0.547,1.032-1.376,1.032-2.236c0-0.845-0.406-1.706-1.032-2.253c-0.532-0.438-1.282-0.688-1.956-0.688
				c-1.423,0-2.659,0.767-3.003,2.097C85.025,44.039,84.979,44.353,84.979,44.649z"/>
			<path fill="#00B3D3" stroke="#00B3D3" stroke-width="0.505" stroke-miterlimit="10" d="M85.34,37.642
				c-1.049-0.501-1.33-1.439-1.33-2.332c0-0.359,0.187-0.594,0.547-0.594c0.344,0,0.532,0.234,0.532,0.594
				c0,1.612,1.282,2.3,2.862,2.3h3.536c0.328,0,0.547,0.267,0.547,0.563c0,0.344-0.219,0.579-0.547,0.579h-6.931
				c-0.688,0-0.75-1.11,0-1.11H85.34z"/>
			<path fill="#00B3D3" stroke="#00B3D3" stroke-width="0.505" stroke-miterlimit="10" d="M84.682,30.132
				c-0.656,0.235-1.031-0.798-0.422-1.079c2.158-1.079,3.927-1.972,6.102-3.066l-6.133-3.098c-0.578-0.234-0.251-1.298,0.391-1.017
				l7.181,3.614c0.406,0.203,0.532,0.734,0.016,1.032L84.682,30.132z"/>
			<path fill="#00B3D3" stroke="#00B3D3" stroke-width="0.505" stroke-miterlimit="10" d="M82.866,19.448
				c0.706,0,0.722,1.173,0,1.173h-0.703c-0.719,0-0.719-1.173,0-1.173H82.866z M84.557,20.605c-0.672,0-0.688-1.143-0.016-1.143
				h7.056c0.688,0,0.673,1.143,0,1.143H84.557z"/>
			<path fill="#00B3D3" stroke="#00B3D3" stroke-width="0.505" stroke-miterlimit="10" d="M85.34,16.257
				c-1.049-0.501-1.33-1.439-1.33-2.331c0-0.36,0.187-0.595,0.547-0.595c0.344,0,0.532,0.234,0.532,0.595
				c0,1.611,1.282,2.3,2.862,2.3h3.536c0.328,0,0.547,0.266,0.547,0.563c0,0.345-0.219,0.579-0.547,0.579h-6.931
				c-0.688,0-0.75-1.11,0-1.11H85.34z"/>
			<path fill="#00B3D3" stroke="#00B3D3" stroke-width="0.505" stroke-miterlimit="10" d="M84.041,7.966
				c0-0.704,0.984-0.704,0.984,0v1.705h4.225c0.892,0,1.83-0.141,1.83-1.205c0-0.234-0.078-0.578-0.172-0.734
				c-0.375-0.658,0.548-1.174,0.938-0.47c0.219,0.391,0.267,0.782,0.267,1.204c0,1.878-1.378,2.331-2.863,2.331h-4.225v1.033
				c0,0.735-0.984,0.688-0.984,0v-1.033h-1.814c-0.751,0-0.736-1.126,0-1.126h1.814V7.966z"/>
			<path fill="#00B3D3" stroke="#00B3D3" stroke-width="0.505" stroke-miterlimit="10" d="M88.655,4.603
				c1.438,0,2.44-1.158,2.44-2.425c0-1.518-1.252-2.941-2.957-2.941H84.51c-0.344,0-0.548-0.203-0.548-0.563
				c0-0.359,0.204-0.595,0.548-0.595h7.009c0.72,0,0.735,1.127-0.016,1.127h-0.986c1.142,0.563,1.644,1.768,1.644,2.987
				c0,1.815-1.252,3.552-3.505,3.552H84.51c-0.344,0-0.548-0.203-0.548-0.563c0-0.345,0.204-0.579,0.548-0.579H88.655z"/>
		</g>
		<g clip-path="url(#SVGID_4_)">
			<polygon fill="#9DBC85" points="-3.165,22.511 13.785,33.365 -3.165,44.221 			"/>
			<polygon fill="#CCC985" points="13.785,33.365 -3.165,22.511 13.785,11.656 			"/>
			<polygon fill="#C6C683" points="-3.165,0.803 13.785,11.656 -3.165,22.511 			"/>
			<polygon fill="#E9CB7E" points="13.785,11.656 -3.165,0.803 13.785,-10.05 			"/>
			<polygon fill="#D9A569" points="-3.165,-20.905 13.785,-10.05 -3.165,0.803 			"/>
			<polygon fill="#6BAF7E" points="30.736,44.221 13.785,33.365 30.736,22.511 			"/>
			<polygon fill="#62AB82" points="13.785,11.656 30.736,22.511 13.785,33.365 			"/>
			<polygon fill="#A6B884" points="30.736,22.511 13.785,11.656 30.736,0.803 			"/>
			<polygon fill="#BBB57E" points="13.785,-10.05 30.736,0.803 13.785,11.656 			"/>
			<polygon fill="#DBAA6E" points="30.736,0.803 13.785,-10.05 30.736,-20.905 			"/>
			<polygon fill="#128A81" points="30.736,22.511 47.688,33.365 30.736,44.221 			"/>
			<polygon fill="#419A84" points="47.688,33.365 30.736,22.511 47.688,11.656 			"/>
			<polygon fill="#70A585" points="30.736,0.803 47.688,11.656 30.736,22.511 			"/>
			<polygon fill="#A2B383" points="47.688,11.656 30.736,0.803 47.688,-10.05 			"/>
			<polygon fill="#C4C685" points="30.736,-20.905 47.688,-10.05 30.736,0.803 			"/>
			<polygon fill="#086D76" points="64.639,44.221 47.688,33.365 64.639,22.511 			"/>
			<polygon fill="#0D797A" points="47.688,11.656 64.639,22.511 47.688,33.365 			"/>
			<polygon fill="#689F86" points="64.639,22.511 47.688,11.656 64.639,0.803 			"/>
			<polygon fill="#89AD82" points="47.688,-10.05 64.639,0.803 47.688,11.656 			"/>
			<polygon fill="#B9C07F" points="64.639,0.803 47.688,-10.05 64.639,-20.905 			"/>
		</g>
		<g opacity="0.48" clip-path="url(#SVGID_4_)">
			<polygon fill="#DDA054" points="0.733,34.728 -17.914,23.872 0.733,13.019 			"/>
			<polygon fill="#E3BF6E" points="-17.914,2.165 0.733,13.019 -17.914,23.872 			"/>
			<polygon fill="#F4CE70" points="0.733,13.019 -17.914,2.165 0.733,-8.688 			"/>
			<polygon fill="#F5C673" points="-17.914,-19.543 0.733,-8.688 -17.914,2.165 			"/>
			<polygon fill="#9DBC85" points="0.733,13.019 19.38,23.872 0.733,34.728 			"/>
			<polygon fill="#CCC985" points="19.38,23.872 0.733,13.019 19.38,2.165 			"/>
			<polygon fill="#C6C683" points="0.733,-8.688 19.38,2.165 0.733,13.019 			"/>
			<polygon fill="#E9CB7E" points="19.38,2.165 0.733,-8.688 19.38,-19.543 			"/>
			<polygon fill="#6BAF7E" points="38.024,34.728 19.38,23.872 38.024,13.019 			"/>
			<polygon fill="#62AB82" points="19.38,2.165 38.024,13.019 19.38,23.872 			"/>
			<polygon fill="#A6B884" points="38.024,13.019 19.38,2.165 38.024,-8.688 			"/>
			<polygon fill="#BBB57E" points="19.38,-19.543 38.024,-8.688 19.38,2.165 			"/>
			<polygon fill="#128A81" points="38.024,13.019 56.671,23.872 38.024,34.728 			"/>
			<polygon fill="#419A84" points="56.671,23.872 38.024,13.019 56.671,2.165 			"/>
			<polygon fill="#70A585" points="38.024,-8.688 56.671,2.165 38.024,13.019 			"/>
			<polygon fill="#A2B383" points="56.671,2.165 38.024,-8.688 56.671,-19.543 			"/>
			<polygon fill="#086D76" points="75.317,34.728 56.671,23.872 75.317,13.019 			"/>
			<polygon fill="#0D797A" points="56.671,2.165 75.317,13.019 56.671,23.872 			"/>
			<polygon fill="#689F86" points="75.317,13.019 56.671,2.165 75.317,-8.688 			"/>
			<polygon fill="#89AD82" points="56.671,-19.543 75.317,-8.688 56.671,2.165 			"/>
		</g>
		<g opacity="0.26" clip-path="url(#SVGID_4_)">
			<polygon fill="#9DBC85" points="-4.607,38.53 14.039,49.384 -4.607,60.238 			"/>
			<polygon fill="#CCC985" points="14.039,49.384 -4.607,38.53 14.039,27.677 			"/>
			<polygon fill="#C6C683" points="-4.607,16.822 14.039,27.677 -4.607,38.53 			"/>
			<polygon fill="#E9CB7E" points="14.039,27.677 -4.607,16.822 14.039,5.968 			"/>
			<polygon fill="#D9A569" points="-4.607,-4.886 14.039,5.968 -4.607,16.822 			"/>
			<polygon fill="#A1583B" points="14.039,5.968 -4.607,-4.886 14.039,-15.738 			"/>
			<polygon fill="#6BAF7E" points="32.686,60.238 14.039,49.384 32.686,38.53 			"/>
			<polygon fill="#62AB82" points="14.039,27.677 32.686,38.53 14.039,49.384 			"/>
			<polygon fill="#A6B884" points="32.686,38.53 14.039,27.677 32.686,16.822 			"/>
			<polygon fill="#BBB57E" points="14.039,5.968 32.686,16.822 14.039,27.677 			"/>
			<polygon fill="#DBAA6E" points="32.686,16.822 14.039,5.968 32.686,-4.886 			"/>
			<polygon fill="#DF995E" points="14.039,-15.738 32.686,-4.886 14.039,5.968 			"/>
			<polygon fill="#128A81" points="32.686,38.53 51.33,49.384 32.686,60.238 			"/>
			<polygon fill="#419A84" points="51.33,49.384 32.686,38.53 51.33,27.677 			"/>
			<polygon fill="#70A585" points="32.686,16.822 51.33,27.677 32.686,38.53 			"/>
			<polygon fill="#A2B383" points="51.33,27.677 32.686,16.822 51.33,5.968 			"/>
			<polygon fill="#C4C685" points="32.686,-4.886 51.33,5.968 32.686,16.822 			"/>
			<polygon fill="#E1B972" points="51.33,5.968 32.686,-4.886 51.33,-15.738 			"/>
			<polygon fill="#086D76" points="69.978,60.238 51.33,49.384 69.978,38.53 			"/>
			<polygon fill="#0D797A" points="51.33,27.677 69.978,38.53 51.33,49.384 			"/>
			<polygon fill="#689F86" points="69.978,38.53 51.33,27.677 69.978,16.822 			"/>
			<polygon fill="#89AD82" points="51.33,5.968 69.978,16.822 51.33,27.677 			"/>
			<polygon fill="#B9C07F" points="69.978,16.822 51.33,5.968 69.978,-4.886 			"/>
			<polygon fill="#D1B466" points="51.33,-15.738 69.978,-4.886 51.33,5.968 			"/>
		</g>
	</g>
	<circle fill="#00A182" cx="68.192" cy="25.228" r="3.038"/>
	<g>
		<g>
			<path fill="#96979A" d="M96.902,50.233c0.628,0,1.474-0.157,1.691-0.846c0.097-0.305,0.681-0.148,0.566,0.201
				c-0.322,0.984-1.429,1.211-2.267,1.211c-1.063,0-2.457-0.558-2.423-1.821c0.027-0.933,0.732-1.229,1.387-1.508
				c0.453-0.184,0.872-0.366,0.872-0.784v-0.21c0-0.357,0.626-0.375,0.626,0v0.218c0,0.75-0.618,1.012-1.211,1.265
				c-0.505,0.209-1.02,0.436-1.037,1.037C95.091,49.876,96.162,50.233,96.902,50.233z M96.676,45.388c0-0.401,0.725-0.357,0.725,0
				v0.227c0,0.383-0.725,0.4-0.725,0V45.388z"/>
			<path fill="#96979A" d="M104.451,48.961c-0.479,0.383-1.106,0.618-1.734,0.618c-1.525,0-2.789-1.098-2.789-2.963
				c0-1.395,0.88-2.536,2.274-2.754c0.306-0.035,0.593-0.035,0.924,0c1.36,0.209,2.372,1.395,2.372,2.754
				c-0.01,0.768-0.201,1.447-0.628,1.899l0.497,0.515c0.296,0.297-0.149,0.706-0.444,0.428L104.451,48.961z M104.442,48.063
				c0.313-0.393,0.419-0.863,0.419-1.421c0-1.116-0.75-2.022-1.822-2.197c-0.244-0.034-0.487-0.034-0.749,0
				c-1.055,0.166-1.726,1.09-1.726,2.197c0,1.395,0.977,2.354,2.152,2.354c0.488,0,0.941-0.175,1.315-0.488l-0.486-0.497
				c-0.306-0.305,0.164-0.732,0.444-0.4L104.442,48.063z"/>
			<path fill="#96979A" d="M107.346,47.618c0,0.802,0.645,1.36,1.351,1.36c0.845,0,1.639-0.697,1.639-1.647v-2.022
				c0-0.191,0.114-0.305,0.313-0.305c0.201,0,0.331,0.113,0.331,0.305v3.905c0,0.4-0.626,0.409-0.626-0.009v-0.549
				c-0.314,0.636-0.985,0.915-1.666,0.915c-1.01,0-1.979-0.697-1.979-1.953v-2.31c0-0.191,0.114-0.305,0.314-0.305
				c0.191,0,0.322,0.113,0.322,0.305V47.618z"/>
			<path fill="#96979A" d="M114.99,45.065c0.985,0.27,1.596,1.071,1.612,2.188v-0.01c0.018,0.192-0.069,0.401-0.427,0.401h-3.442
				c0.112,0.715,0.723,1.308,1.595,1.308c0.4,0,0.819-0.104,1.16-0.366c0.304-0.279,0.757,0.078,0.416,0.427
				c-0.399,0.375-0.983,0.532-1.551,0.523c-0.68,0-1.359-0.262-1.77-0.776c-0.94-1.237-0.531-3.241,1.09-3.694
				c0.41-0.123,0.881-0.114,1.308,0H114.99z M112.707,47.113h3.285c-0.061-0.741-0.514-1.308-1.194-1.481h0.009
				c-0.287-0.079-0.645-0.079-0.94,0.008C113.168,45.823,112.76,46.407,112.707,47.113z M114.79,43.496
				c0.27-0.357,0.802,0,0.514,0.297l-0.714,0.714c-0.297,0.262-0.61-0.052-0.445-0.288L114.79,43.496z"/>
			<path fill="#96979A" d="M123.733,46.921c0-0.802-0.646-1.359-1.352-1.359c-0.845,0-1.638,0.593-1.638,1.49v2.171
				c0,0.191-0.113,0.313-0.314,0.313c-0.2,0-0.331-0.122-0.331-0.313v-5.221c0-0.375,0.646-0.366,0.646,0v1.83
				c0.313-0.61,0.993-0.863,1.646-0.863c1.012,0,1.979,0.697,1.979,1.952v2.302c0,0.191-0.113,0.313-0.313,0.313
				c-0.191,0-0.322-0.122-0.322-0.313V46.921z"/>
			<path fill="#96979A" d="M126.697,45.161c0.287-0.131,0.601-0.175,0.932-0.166c0.498,0.009,1.064,0.166,1.378,0.68v-0.331
				c0-0.183,0.114-0.313,0.314-0.313c0.191,0,0.322,0.131,0.322,0.313v3.87c0,0.191-0.131,0.313-0.322,0.313
				c-0.2,0-0.314-0.122-0.314-0.313v-0.419c-0.253,0.506-0.897,0.794-1.412,0.794c-0.419,0-0.889-0.113-1.256-0.375
				c-0.661-0.454-1.002-1.194-0.976-2.049c0.018-0.88,0.506-1.69,1.343-2.014L126.697,45.161z M129.007,47.627v-0.688
				c0-0.862-0.601-1.307-1.386-1.342c-0.619-0.009-1.246,0.322-1.49,0.933c-0.078,0.183-0.122,0.418-0.131,0.646
				c-0.018,0.565,0.165,1.089,0.637,1.481c0.262,0.199,0.574,0.305,0.896,0.33C128.336,48.986,128.964,48.499,129.007,47.627z"/>
			<path fill="#96979A" d="M135.039,49.274c0,1.264-0.959,1.918-2.153,1.918c-0.662,0-1.193-0.157-1.664-0.602
				c-0.35-0.34,0.13-0.741,0.427-0.453c0.436,0.331,0.75,0.436,1.237,0.436c0.792,0,1.534-0.401,1.534-1.299v-0.471
				c-0.305,0.549-0.871,0.758-1.395,0.768c-0.331,0.008-0.646-0.044-0.941-0.166c-0.811-0.331-1.307-1.124-1.324-2.005
				c-0.026-1.011,0.443-1.874,1.395-2.266c0.27-0.104,0.557-0.148,0.818-0.148c0.532,0,1.143,0.2,1.43,0.68v-0.331
				c0-0.191,0.113-0.313,0.314-0.313c0.191,0,0.322,0.122,0.322,0.313V49.274z M132.031,45.91h0.01
				c-0.479,0.393-0.663,0.915-0.646,1.481c0.01,0.227,0.053,0.462,0.131,0.646c0.245,0.609,0.873,0.941,1.491,0.933h-0.008
				c0.783-0.035,1.394-0.602,1.394-1.343v-0.688c0-0.549-0.226-0.967-0.741-1.193C133.139,45.509,132.511,45.544,132.031,45.91z"/>
			<path fill="#96979A" d="M136.651,48.777c-0.392-0.461-0.558-1.02-0.532-1.673c0.088-0.968,0.654-1.778,1.613-2.049
				c0.209-0.061,0.445-0.078,0.662-0.078c0.209,0,0.419,0.018,0.645,0.078c0.951,0.271,1.543,1.073,1.621,2.049
				c0.035,0.653-0.139,1.212-0.521,1.673c-0.429,0.515-1.055,0.784-1.744,0.784C137.697,49.562,137.078,49.292,136.651,48.777z
				 M138.386,45.57c-0.165,0-0.331,0.026-0.462,0.062c-0.731,0.191-1.158,0.871-1.158,1.655c0,0.393,0.121,0.803,0.383,1.107
				c0.306,0.365,0.768,0.575,1.246,0.575c0.471,0,0.95-0.227,1.255-0.575c0.245-0.297,0.384-0.715,0.384-1.09
				c0-0.793-0.427-1.481-1.168-1.673C138.727,45.597,138.552,45.57,138.386,45.57z"/>
			<path fill="#96979A" d="M146.057,44.995c0.584,0,1.15,0.244,1.412,0.706v-1.734c0-0.401,0.636-0.401,0.636,0v5.265
				c0,0.191-0.122,0.305-0.322,0.305s-0.296-0.113-0.296-0.305v-0.41c-0.297,0.541-0.906,0.768-1.43,0.768
				c-0.271,0-0.566-0.053-0.838-0.166l0.01,0.009c-0.95-0.393-1.43-1.255-1.402-2.267C143.86,45.928,144.749,44.995,146.057,44.995z
				 M147.469,47.627v-0.688c0-0.767-0.593-1.307-1.387-1.342c-0.618,0-1.237,0.331-1.489,0.933c-0.07,0.183-0.123,0.418-0.131,0.646
				c-0.009,0.565,0.174,1.089,0.645,1.481c0.253,0.199,0.567,0.305,0.897,0.33C146.797,48.986,147.469,48.481,147.469,47.627z"/>
			<path fill="#96979A" d="M149.719,48.777c-0.393-0.461-0.559-1.02-0.532-1.673c0.087-0.968,0.653-1.778,1.611-2.049
				c0.21-0.061,0.445-0.078,0.663-0.078c0.209,0,0.419,0.018,0.645,0.078c0.95,0.271,1.543,1.073,1.622,2.049
				c0.034,0.653-0.14,1.212-0.523,1.673c-0.427,0.515-1.055,0.784-1.743,0.784C150.765,49.562,150.145,49.292,149.719,48.777z
				 M151.453,45.57c-0.166,0-0.333,0.026-0.463,0.062c-0.732,0.191-1.159,0.871-1.159,1.655c0,0.393,0.122,0.803,0.384,1.107
				c0.305,0.365,0.768,0.575,1.246,0.575c0.471,0,0.95-0.227,1.256-0.575c0.243-0.297,0.383-0.715,0.383-1.09
				c0-0.793-0.428-1.481-1.168-1.673C151.792,45.597,151.619,45.57,151.453,45.57z"/>
			<path fill="#96979A" d="M156.727,45.509c-0.95,0-1.596,0.776-1.596,1.77c0,0.393,0.113,0.837,0.375,1.151
				c0.306,0.374,0.784,0.574,1.254,0.574c0.463,0,0.969-0.156,1.273-0.574c0.218-0.297,0.741,0.043,0.444,0.383
				c-0.427,0.522-1.081,0.776-1.726,0.776c-0.653,0-1.316-0.271-1.752-0.776c-0.365-0.453-0.549-1.072-0.514-1.708
				c0.069-1.29,0.984-2.17,2.311-2.17c0.626,0,1.132,0.209,1.602,0.74c0.254,0.288-0.217,0.653-0.461,0.366
				C157.606,45.657,157.161,45.509,156.727,45.509z"/>
			<path fill="#96979A" d="M161.372,45.048c0.393,0,0.393,0.549,0,0.549h-0.95v2.354c0,0.496,0.079,1.02,0.671,1.02
				c0.131,0,0.323-0.044,0.41-0.096c0.366-0.21,0.653,0.305,0.262,0.522c-0.218,0.122-0.437,0.148-0.672,0.148
				c-1.045,0-1.299-0.768-1.299-1.595v-2.354h-0.574c-0.411,0-0.384-0.549,0-0.549h0.574v-1.012c0-0.418,0.628-0.409,0.628,0v1.012
				H161.372z"/>
			<path fill="#96979A" d="M162.889,48.777c-0.392-0.461-0.558-1.02-0.531-1.673c0.088-0.968,0.653-1.778,1.612-2.049
				c0.21-0.061,0.444-0.078,0.663-0.078c0.208,0,0.418,0.018,0.645,0.078c0.95,0.271,1.543,1.073,1.621,2.049
				c0.034,0.653-0.141,1.212-0.523,1.673c-0.427,0.515-1.054,0.784-1.742,0.784C163.936,49.562,163.316,49.292,162.889,48.777z
				 M164.623,45.57c-0.165,0-0.331,0.026-0.461,0.062c-0.732,0.191-1.16,0.871-1.16,1.655c0,0.393,0.121,0.803,0.383,1.107
				c0.306,0.365,0.769,0.575,1.248,0.575c0.47,0,0.95-0.227,1.254-0.575c0.245-0.297,0.384-0.715,0.384-1.09
				c0-0.793-0.427-1.481-1.168-1.673C164.963,45.597,164.789,45.57,164.623,45.57z"/>
			<path fill="#96979A" d="M168.529,45.771c0.277-0.585,0.802-0.741,1.298-0.741c0.2,0,0.331,0.104,0.331,0.305
				c0,0.191-0.131,0.297-0.331,0.297c-0.897,0-1.281,0.714-1.281,1.595v1.97c0,0.184-0.147,0.305-0.313,0.305
				c-0.191,0-0.322-0.121-0.322-0.305v-3.861c0-0.384,0.619-0.418,0.619,0V45.771z"/>
			<path fill="#96979A" d="M172.668,44.429c-0.627,0-1.473,0.157-1.69,0.846c-0.096,0.305-0.679,0.147-0.566-0.201
				c0.322-0.984,1.431-1.211,2.267-1.211c1.063,0,2.458,0.558,2.423,1.821c-0.026,0.933-0.732,1.229-1.386,1.508
				c-0.453,0.183-0.871,0.366-0.871,0.785v0.209c0,0.357-0.629,0.374-0.629,0v-0.219c0-0.749,0.619-1.011,1.212-1.264
				c0.507-0.209,1.021-0.436,1.037-1.037C174.482,44.786,173.41,44.429,172.668,44.429z M172.895,49.274
				c0,0.401-0.723,0.357-0.723,0v-0.227c0-0.384,0.723-0.401,0.723,0V49.274z"/>
		</g>
	</g>
	<g>
		<g>
			<path fill="#00A182" d="M84.396,25.491c1.168,0,2.3,0.487,2.822,1.41v-3.466c0-0.801,1.271-0.801,1.271,0v10.52
				c0,0.384-0.243,0.61-0.645,0.61c-0.4,0-0.592-0.227-0.592-0.61v-0.818c-0.592,1.079-1.811,1.532-2.857,1.532
				c-0.539,0-1.131-0.104-1.671-0.33l0.017,0.017c-1.897-0.783-2.855-2.508-2.804-4.528C80.008,27.354,81.785,25.491,84.396,25.491z
				 M87.219,30.75v-1.375c0-1.533-1.184-2.612-2.769-2.683c-1.236,0-2.474,0.662-2.979,1.863c-0.139,0.366-0.243,0.837-0.26,1.289
				c-0.018,1.132,0.348,2.177,1.288,2.961c0.505,0.4,1.132,0.609,1.794,0.661C85.878,33.467,87.219,32.457,87.219,30.75z"/>
			<path fill="#00A182" d="M91.714,33.05c-0.784-0.923-1.116-2.038-1.063-3.344c0.173-1.934,1.306-3.554,3.222-4.093
				c0.418-0.122,0.889-0.157,1.323-0.157c0.418,0,0.837,0.035,1.29,0.157c1.897,0.539,3.082,2.142,3.238,4.093
				c0.07,1.306-0.278,2.421-1.045,3.344c-0.853,1.027-2.107,1.567-3.483,1.567C93.804,34.617,92.566,34.077,91.714,33.05z
				 M95.18,26.64c-0.332,0-0.662,0.053-0.924,0.123c-1.463,0.383-2.316,1.741-2.316,3.309c0,0.784,0.244,1.603,0.766,2.212
				c0.61,0.731,1.533,1.149,2.491,1.149c0.941,0,1.899-0.453,2.509-1.149c0.487-0.592,0.767-1.428,0.767-2.177
				c0-1.585-0.854-2.961-2.334-3.344C95.859,26.692,95.51,26.64,95.18,26.64z"/>
			<path fill="#00A182" d="M105.717,26.519c-1.898,0-3.187,1.55-3.187,3.535c0,0.784,0.227,1.672,0.748,2.299
				c0.61,0.749,1.567,1.15,2.508,1.15c0.923,0,1.935-0.314,2.543-1.15c0.436-0.592,1.48,0.087,0.888,0.767
				c-0.852,1.045-2.159,1.55-3.447,1.55c-1.307,0-2.63-0.54-3.501-1.55c-0.731-0.906-1.097-2.143-1.028-3.413
				c0.139-2.578,1.969-4.337,4.615-4.337c1.255,0,2.265,0.418,3.206,1.48c0.505,0.574-0.437,1.306-0.923,0.731
				C107.476,26.814,106.588,26.519,105.717,26.519z"/>
			<path fill="#00A182" d="M115.001,25.596c0.783,0,0.783,1.097,0,1.097h-1.897v4.703c0,0.992,0.155,2.037,1.341,2.037
				c0.26,0,0.644-0.087,0.818-0.191c0.731-0.418,1.306,0.609,0.521,1.045c-0.435,0.244-0.871,0.296-1.34,0.296
				c-2.091,0-2.596-1.532-2.596-3.187v-4.703h-1.149c-0.818,0-0.767-1.097,0-1.097h1.149v-2.021c0-0.836,1.255-0.819,1.255,0v2.021
				H115.001z"/>
			<path fill="#00A182" d="M118.033,33.05c-0.785-0.923-1.116-2.038-1.063-3.344c0.174-1.934,1.307-3.554,3.223-4.093
				c0.418-0.122,0.888-0.157,1.323-0.157c0.418,0,0.836,0.035,1.289,0.157c1.897,0.539,3.082,2.142,3.239,4.093
				c0.069,1.306-0.278,2.421-1.045,3.344c-0.854,1.027-2.107,1.567-3.483,1.567C120.122,34.617,118.886,34.077,118.033,33.05z
				 M121.497,26.64c-0.33,0-0.66,0.053-0.922,0.123c-1.463,0.383-2.317,1.741-2.317,3.309c0,0.784,0.245,1.603,0.767,2.212
				c0.61,0.731,1.532,1.149,2.491,1.149c0.94,0,1.898-0.453,2.508-1.149c0.487-0.592,0.768-1.428,0.768-2.177
				c0-1.585-0.855-2.961-2.335-3.344C122.178,26.692,121.828,26.64,121.497,26.64z"/>
			<path fill="#00A182" d="M129.301,27.041c0.557-1.167,1.603-1.48,2.596-1.48c0.4,0,0.662,0.209,0.662,0.609
				c0,0.384-0.262,0.593-0.662,0.593c-1.794,0-2.561,1.428-2.561,3.187v3.937c0,0.365-0.297,0.609-0.627,0.609
				c-0.383,0-0.645-0.244-0.645-0.609V26.17c0-0.767,1.236-0.836,1.236,0V27.041z"/>
			<path fill="#00A182" d="M137.661,26.31c-0.261-0.731,0.888-1.149,1.202-0.47c1.202,2.403,2.193,4.371,3.413,6.792l3.449-6.827
				c0.261-0.645,1.444-0.279,1.132,0.436l-4.023,7.994c-0.228,0.452-0.818,0.592-1.149,0.017L137.661,26.31z"/>
			<path fill="#00A182" d="M149.558,24.289c0,0.784-1.307,0.802-1.307,0v-0.784c0-0.801,1.307-0.801,1.307,0V24.289z M148.27,26.17
				c0-0.749,1.271-0.767,1.271-0.018v7.855c0,0.766-1.271,0.749-1.271,0V26.17z"/>
			<path fill="#00A182" d="M153.111,27.041c0.557-1.167,1.602-1.48,2.594-1.48c0.401,0,0.663,0.209,0.663,0.609
				c0,0.384-0.262,0.593-0.663,0.593c-1.793,0-2.56,1.428-2.56,3.187v3.937c0,0.365-0.296,0.609-0.626,0.609
				c-0.384,0-0.645-0.244-0.645-0.609V26.17c0-0.767,1.236-0.836,1.236,0V27.041z"/>
			<path fill="#00A182" d="M162.342,25.596c0.784,0,0.784,1.097,0,1.097h-1.898v4.703c0,0.992,0.156,2.037,1.342,2.037
				c0.261,0,0.645-0.087,0.817-0.191c0.731-0.418,1.307,0.609,0.523,1.045c-0.436,0.244-0.871,0.296-1.341,0.296
				c-2.09,0-2.596-1.532-2.596-3.187v-4.703h-1.148c-0.82,0-0.767-1.097,0-1.097h1.148v-2.021c0-0.836,1.254-0.819,1.254,0v2.021
				H162.342z"/>
			<path fill="#00A182" d="M166.086,30.733c0,1.603,1.29,2.717,2.701,2.717c1.689,0,3.273-1.394,3.273-3.291v-4.041
				c0-0.384,0.226-0.609,0.627-0.609s0.662,0.226,0.662,0.609v7.802c0,0.802-1.254,0.819-1.254-0.018v-1.097
				c-0.627,1.271-1.969,1.828-3.327,1.828c-2.021,0-3.953-1.393-3.953-3.9v-4.615c0-0.384,0.227-0.609,0.628-0.609
				c0.382,0,0.643,0.226,0.643,0.609V30.733z"/>
			<path fill="#00A182" d="M178.157,25.822c0.575-0.262,1.202-0.349,1.864-0.331c0.992,0.018,2.124,0.331,2.751,1.358v-0.662
				c0-0.365,0.227-0.627,0.628-0.627c0.383,0,0.644,0.262,0.644,0.627v7.732c0,0.384-0.261,0.628-0.644,0.628
				c-0.401,0-0.628-0.244-0.628-0.628v-0.835c-0.505,1.01-1.793,1.584-2.821,1.584c-0.836,0-1.777-0.227-2.508-0.749
				c-1.322-0.905-2.004-2.386-1.95-4.093c0.034-1.759,1.01-3.379,2.681-4.022L178.157,25.822z M182.772,30.75v-1.375
				c0-1.725-1.201-2.612-2.77-2.683c-1.236-0.018-2.49,0.645-2.978,1.863c-0.156,0.366-0.244,0.837-0.262,1.289
				c-0.034,1.132,0.332,2.177,1.271,2.961c0.523,0.4,1.15,0.609,1.795,0.661C181.432,33.467,182.686,32.492,182.772,30.75z"/>
			<path fill="#00A182" d="M187.894,33.938c0,0.331-0.278,0.593-0.626,0.593c-0.384,0-0.645-0.262-0.645-0.593v-10.45
				c0-0.33,0.261-0.591,0.645-0.591c0.348,0,0.626,0.261,0.626,0.591V33.938z"/>
		</g>
	</g>
</g>
</svg>
