<?xml version="1.0" encoding="utf-8"?>
<!-- Generator: Adobe Illustrator 16.0.0, SVG Export Plug-In . SVG Version: 6.00 Build 0)  -->
<!DOCTYPE svg PUBLIC "-//W3C//DTD SVG 1.1//EN" "http://www.w3.org/Graphics/SVG/1.1/DTD/svg11.dtd">
<svg version="1.1" id="Capa_1" xmlns="http://www.w3.org/2000/svg" xmlns:xlink="http://www.w3.org/1999/xlink" x="0px" y="0px"
	 width="56.5px" height="56.042px" viewBox="0 0 56.5 56.042" enable-background="new 0 0 56.5 56.042" xml:space="preserve">
<g>
	<path fill-rule="evenodd" clip-rule="evenodd" fill="#399F81" d="M41.974,35.962c0.058,0.446-0.078,0.835-0.407,1.164l-3.869,3.841
		c-0.174,0.193-0.402,0.358-0.683,0.494c-0.281,0.136-0.558,0.224-0.829,0.262c-0.02,0-0.078,0.005-0.175,0.015
		c-0.097,0.01-0.223,0.015-0.378,0.015c-0.368,0-0.964-0.063-1.789-0.189c-0.824-0.126-1.833-0.436-3.025-0.931
		c-1.192-0.494-2.545-1.236-4.057-2.226c-1.513-0.989-3.122-2.347-4.828-4.073c-1.357-1.338-2.482-2.618-3.374-3.84
		c-0.892-1.223-1.609-2.352-2.152-3.39s-0.95-1.979-1.221-2.822c-0.272-0.844-0.456-1.571-0.553-2.182
		c-0.097-0.611-0.136-1.091-0.117-1.44c0.02-0.35,0.029-0.543,0.029-0.582c0.039-0.271,0.126-0.548,0.262-0.829
		s0.301-0.509,0.495-0.684l3.868-3.869c0.271-0.272,0.582-0.407,0.931-0.407c0.252,0,0.475,0.072,0.669,0.218
		s0.359,0.325,0.495,0.538l3.112,5.906c0.175,0.311,0.223,0.649,0.146,1.018c-0.078,0.369-0.242,0.68-0.494,0.932l-1.425,1.426
		c-0.039,0.038-0.073,0.102-0.102,0.189c-0.029,0.087-0.043,0.159-0.043,0.218c0.078,0.407,0.252,0.873,0.523,1.396
		c0.233,0.466,0.591,1.032,1.076,1.702c0.485,0.669,1.173,1.439,2.065,2.313c0.873,0.893,1.648,1.586,2.327,2.08
		c0.678,0.495,1.246,0.858,1.701,1.092c0.456,0.232,0.805,0.373,1.047,0.421l0.364,0.073c0.039,0,0.102-0.015,0.189-0.044
		c0.087-0.029,0.15-0.063,0.189-0.102l1.658-1.688c0.349-0.311,0.756-0.466,1.221-0.466c0.33,0,0.592,0.059,0.786,0.175h0.029
		l5.613,3.316C41.654,35.255,41.896,35.575,41.974,35.962z"/>
	<path fill-rule="evenodd" clip-rule="evenodd" fill="none" stroke="#399F81" stroke-miterlimit="10" d="M5.927,2.273h44.646
		c1.896,0,3.434,1.537,3.434,3.434v44.63c0,1.896-1.537,3.433-3.434,3.433H5.927c-1.896,0-3.434-1.537-3.434-3.433V5.707
		C2.493,3.81,4.03,2.273,5.927,2.273z"/>
</g>
</svg>
